<svg width="20" height="20" viewBox="0 0 20 20" fill="none" xmlns="http://www.w3.org/2000/svg">
<path fill-rule="evenodd" clip-rule="evenodd" d="M2.0904 1.9209C2.04544 1.9209 2.00233 1.93876 1.97055 1.97055C1.93876 2.00233 1.9209 2.04544 1.9209 2.0904V6.61017C1.9209 6.65512 1.93876 6.69823 1.97055 6.73002C2.00233 6.7618 2.04544 6.77966 2.0904 6.77966H6.61017C6.65512 6.77966 6.69823 6.7618 6.73002 6.73002C6.7618 6.69823 6.77966 6.65512 6.77966 6.61017V2.0904C6.77966 2.04544 6.7618 2.00233 6.73002 1.97055C6.69823 1.93876 6.65512 1.9209 6.61017 1.9209H2.0904ZM0.612263 0.612263C1.00429 0.220238 1.53599 0 2.0904 0H6.61017C7.16458 0 7.69628 0.220238 8.0883 0.612263C8.48033 1.00429 8.70056 1.53599 8.70056 2.0904V6.61017C8.70056 7.16458 8.48033 7.69628 8.0883 8.0883C7.69628 8.48033 7.16458 8.70056 6.61017 8.70056H2.0904C1.53599 8.70056 1.00429 8.48033 0.612263 8.0883C0.220238 7.69628 0 7.16458 0 6.61017V2.0904C0 1.53599 0.220238 1.00429 0.612263 0.612263ZM13.3898 1.9209C13.3449 1.9209 13.3018 1.93876 13.27 1.97055C13.2382 2.00233 13.2203 2.04544 13.2203 2.0904V6.61017C13.2203 6.65512 13.2382 6.69823 13.27 6.73002C13.3018 6.7618 13.3449 6.77966 13.3898 6.77966H17.9096C17.9546 6.77966 17.9977 6.7618 18.0295 6.73002C18.0612 6.69823 18.0791 6.65512 18.0791 6.61017V2.0904C18.0791 2.04544 18.0612 2.00233 18.0295 1.97055C17.9977 1.93876 17.9546 1.9209 17.9096 1.9209H13.3898ZM11.9117 0.612263C12.3037 0.220238 12.8354 0 13.3898 0H17.9096C18.464 0 18.9957 0.220237 19.3877 0.612263C19.7798 1.00429 20 1.53599 20 2.0904V6.61017C20 7.16458 19.7798 7.69628 19.3877 8.0883C18.9957 8.48033 18.464 8.70056 17.9096 8.70056H13.3898C12.8354 8.70056 12.3037 8.48033 11.9117 8.0883C11.5197 7.69628 11.2994 7.16458 11.2994 6.61017V2.0904C11.2994 1.53599 11.5197 1.00429 11.9117 0.612263ZM4.35028 3.38983C4.88073 3.38983 5.31073 3.81984 5.31073 4.35028V4.36158C5.31073 4.89202 4.88073 5.32203 4.35028 5.32203C3.81984 5.32203 3.38983 4.89202 3.38983 4.36158V4.35028C3.38983 3.81984 3.81984 3.38983 4.35028 3.38983ZM15.6497 3.38983C16.1802 3.38983 16.6102 3.81984 16.6102 4.35028V4.36158C16.6102 4.89202 16.1802 5.32203 15.6497 5.32203C15.1193 5.32203 14.6893 4.89202 14.6893 4.36158V4.35028C14.6893 3.81984 15.1193 3.38983 15.6497 3.38983ZM2.0904 13.2203C2.04544 13.2203 2.00233 13.2382 1.97055 13.27C1.93876 13.3018 1.9209 13.3449 1.9209 13.3898V17.9096C1.9209 17.9546 1.93876 17.9977 1.97055 18.0295C2.00233 18.0612 2.04544 18.0791 2.0904 18.0791H6.61017C6.65512 18.0791 6.69823 18.0612 6.73002 18.0295C6.7618 17.9977 6.77966 17.9546 6.77966 17.9096V13.3898C6.77966 13.3449 6.7618 13.3018 6.73002 13.27C6.69823 13.2382 6.65512 13.2203 6.61017 13.2203H2.0904ZM0.612263 11.9117C1.00429 11.5197 1.53599 11.2994 2.0904 11.2994H6.61017C7.16458 11.2994 7.69628 11.5197 8.0883 11.9117C8.48033 12.3037 8.70056 12.8354 8.70056 13.3898V17.9096C8.70056 18.464 8.48033 18.9957 8.0883 19.3877C7.69628 19.7798 7.16458 20 6.61017 20H2.0904C1.53599 20 1.00429 19.7798 0.612263 19.3877C0.220237 18.9957 0 18.464 0 17.9096V13.3898C0 12.8354 0.220238 12.3037 0.612263 11.9117ZM11.2994 12.2599C11.2994 11.7294 11.7294 11.2994 12.2599 11.2994H15.6497C16.1802 11.2994 16.6102 11.7294 16.6102 12.2599C16.6102 12.7903 16.1802 13.2203 15.6497 13.2203H13.2203V15.6497C13.2203 16.1802 12.7903 16.6102 12.2599 16.6102C11.7294 16.6102 11.2994 16.1802 11.2994 15.6497V12.2599ZM19.0395 11.2994C19.57 11.2994 20 11.7294 20 12.2599V12.2712C20 12.8016 19.57 13.2316 19.0395 13.2316C18.5091 13.2316 18.0791 12.8016 18.0791 12.2712V12.2599C18.0791 11.7294 18.5091 11.2994 19.0395 11.2994ZM4.35028 14.6893C4.88073 14.6893 5.31073 15.1193 5.31073 15.6497V15.661C5.31073 16.1915 4.88073 16.6215 4.35028 16.6215C3.81984 16.6215 3.38983 16.1915 3.38983 15.661V15.6497C3.38983 15.1193 3.81984 14.6893 4.35028 14.6893ZM14.6893 15.6497C14.6893 15.1193 15.1193 14.6893 15.6497 14.6893H19.0395C19.57 14.6893 20 15.1193 20 15.6497V19.0395C20 19.57 19.57 20 19.0395 20C18.5091 20 18.0791 19.57 18.0791 19.0395V16.6102H15.6497C15.1193 16.6102 14.6893 16.1802 14.6893 15.6497ZM11.2994 19.0395C11.2994 18.5091 11.7294 18.0791 12.2599 18.0791H15.6497C16.1802 18.0791 16.6102 18.5091 16.6102 19.0395C16.6102 19.57 16.1802 20 15.6497 20H12.2599C11.7294 20 11.2994 19.57 11.2994 19.0395Z" fill="#333333"/>
</svg>
