<svg width="182" height="200" viewBox="0 0 182 200" fill="none" xmlns="http://www.w3.org/2000/svg">
<g clip-path="url(#clip0_2315_97)">
<path d="M94.1171 57.9777L123.179 56.4347C121.605 59.1456 119.664 61.7078 117.351 64.0365C109.147 72.2965 98.068 75.8992 87.3542 74.8446L88.2119 63.725C91.3051 63.4773 93.7656 61.0708 94.1171 57.9848V57.9777Z" fill="#8DC98F"/>
<path d="M81.1959 57.2273C81.1959 60.462 83.537 63.1375 86.6091 63.6542L85.7584 74.6393C78.0395 73.5422 70.5946 70.0032 64.6543 64.0222C59.2482 58.5722 55.8526 51.8693 54.4607 44.8408L81.3787 55.7339C81.2662 56.2152 81.1889 56.7106 81.1889 57.2273H81.1959Z" fill="#8DC98F"/>
<path d="M105.26 29.9064C106.631 29.9064 107.896 29.4746 108.951 28.7456L126.012 50.3406C125.464 51.8482 124.831 53.3346 124.086 54.7715L94.1031 56.364C93.8711 54.5804 92.9361 53.0373 91.5723 52.011L103.017 29.4817C103.72 29.7436 104.472 29.9064 105.26 29.9064Z" fill="#8DC98F"/>
<path d="M126.617 48.5214L110.132 27.6554C111.13 26.5088 111.756 25.0153 111.756 23.3661C111.756 22.3327 111.495 21.3701 111.074 20.4995L120.599 14.731C128.058 24.534 130.062 37.1824 126.617 48.5214Z" fill="#8DC98F"/>
<path d="M69.9832 28.7172C70.7987 28.7172 71.572 28.5473 72.289 28.2713L84.1136 51.7774C83.1926 52.3932 82.4615 53.2425 81.9483 54.2335L54.1445 42.9794C53.4766 38.4141 53.6594 33.7497 54.6647 29.2339L64.2115 25.1216C65.2871 27.245 67.4524 28.7101 69.9761 28.7101L69.9832 28.7172Z" fill="#8DC98F"/>
<path d="M90.1946 51.1897C89.4283 50.8641 88.5777 50.6872 87.6919 50.6872C86.9397 50.6872 86.2227 50.8429 85.5478 51.0836L73.7021 27.5279C75.2136 26.4591 76.2189 24.7675 76.4157 22.821L98.7853 23.5713C98.8486 25.723 99.9383 27.6199 101.59 28.7666L90.1946 51.1968V51.1897Z" fill="#8DC98F"/>
<path d="M110.195 19.1548C109 17.7392 107.249 16.8261 105.26 16.8261C102.153 16.8261 99.5584 19.0274 98.9257 21.9648L76.3804 21.2074C76.0992 19.3176 75.0306 17.6896 73.498 16.6916L81.6248 1.20495C93.9836 -2.02263 107.664 1.23326 117.344 10.9797C118.139 11.7795 118.884 12.6147 119.594 13.4641L110.195 19.1548Z" fill="#8DC98F"/>
<path d="M72.0572 16.0049C71.4034 15.7784 70.7145 15.6298 69.9833 15.6298C66.398 15.6298 63.4876 18.5601 63.4876 22.1699C63.4876 22.6653 63.5509 23.1466 63.6563 23.6138L55.157 27.2731C56.8301 21.3063 59.9937 15.6722 64.6546 10.9795C68.964 6.64069 74.0678 3.60422 79.488 1.83472L72.0572 16.012V16.0049Z" fill="#8DC98F"/>
<path d="M151.03 75.0307H132.008C121.865 86.1948 107.24 93.2207 91 93.2207C74.7598 93.2207 60.1352 86.1948 49.992 75.0307H30.9702C13.866 75.0307 0 88.8998 0 106.001C0 123.102 13.866 136.978 30.9702 136.978H60.0298V168.047C60.0298 185.155 73.8958 199.024 91 199.024C108.104 199.024 121.97 185.155 121.97 168.047V136.978H151.03C168.134 136.978 182 123.109 182 106.001C182 88.8928 168.134 75.0237 151.03 75.0237V75.0307Z" fill="url(#paint0_linear_2315_97)"/>
</g>
<defs>
<linearGradient id="paint0_linear_2315_97" x1="91" y1="46.3018" x2="91" y2="149.997" gradientUnits="userSpaceOnUse">
<stop stop-color="#88CDC7"/>
<stop offset="1" stop-color="#00B4BA"/>
</linearGradient>
<clipPath id="clip0_2315_97">
<rect width="182" height="199.024" fill="white"/>
</clipPath>
</defs>
</svg>
